<svg width="244" height="68" xmlns="http://www.w3.org/2000/svg" shape-rendering="crispEdges"><path fill="#000000" d="m0,0h244v68h-244v-68m24,52h20v-4h4v-4h4v-20h-4v-4h-4v-4h-20v4h-4v4h-4v20h4v4h4v4m44,0h4v-4h4v4h4v-4h4v-16h-4v16h-4v-12h-4v12h-4v-16h-4v16h4v4m20,-4h4v4h12v-4h-12v-4h16v-8h-4v-4h-12v4h-4v12m24,4h16v-4h4v-12h-4v-4h-12v-8h-4v28m24,-12h4v4h12v4h-16v4h16v-4h4v-4h-4v-4h-12v-4h16v-4h-16v4h-4v4m24,-4h8v12h-8v4h20v-4h-8v-16h-12v4m32,16h12v-4h-12v-12h12v-4h-12v-8h-4v8h-4v4h4v12h4v4m16,-4h4v4h12v-4h-12v-4h16v-8h-4v-4h-12v4h-4v12m-40,-20h4v-4h-4v4m-76,8h12v4h-12v-4m24,0h12v12h-12v-12m96,0h12v4h-12v-4"/><path fill="#d95763" d="m24,16h20v4h-12v4h-4v-4h-4v-4m-4,4h4v4h-4v-4m24,0h4v4h-4v-4m-28,4h4v4h4v4h-4v8h-4v-16m8,0h4v4h-4v-4m-4,16h4v4h-4v-4"/><path fill="#eec39a" d="m24,20h4v4h-4v-4m-4,4h4v4h-4v-4"/><path fill="#ac3232" d="m32,20h12v4h8v8h-4v8h-4v4h-4v4h-20v-4h4v-4h-4v-8h4v-4h4v-4h4v-4m-4,20h12v-12h-8v4h-4v8m4,-8h4v4h-4v-4m-16,8h4v4h-4v-4"/><path fill="#ffffff" d="m112,24h4v8h12v4h-12v12h12v4h-16v-28m56,0h4v4h-4v-4m20,0h4v8h12v4h-12v12h-4v-12h-4v-4h4v-8m-156,4h8v12h-12v-8h4v4h4v-4h-4v-4m32,4h4v16h-4v-16m16,0h4v16h-4v-16m12,0h12v4h-12v-4m48,0h16v4h-16v-4m20,0h12v16h8v4h-20v-4h8v-12h-8v-4m52,0h12v4h-12v-4m-140,4h4v12h-4v-12m16,0h4v4h12v-4h4v8h-16v4h-4v-12m40,0h4v12h-4v-12m8,0h4v4h-4v-4m72,0h4v4h12v-4h4v8h-16v4h-4v-12m-68,4h12v4h-12v-4m12,4h4v4h-4v-4m-84,4h4v4h-4v-4m8,0h4v4h-4v-4m16,0h12v4h-12v-4m44,0h16v4h-16v-4m56,0h12v4h-12v-4m20,0h12v4h-12v-4"/><path fill="#45283c" d="m48,32h4v8h-4v-8m-4,8h4v4h-4v-4m-4,4h4v4h-4v-4m-16,4h12v4h-12v-4"/><path fill="#222034" d="m48,40h4v4h-4v-4m-4,4h4v4h-4v-4m-8,4h8v4h-8v-4"/></svg>