<svg width="196" height="68" xmlns="http://www.w3.org/2000/svg" shape-rendering="crispEdges"><path fill="#847e87" d="m24,20h12v4h-12v-4m16,0h4v4h-4v-4m-16,8h8v4h-8v-4"/><path fill="#663931" d="m16,28h4v8h-4v-8"/><path fill="#d9a066" d="m36,28h8v24h-8v-24m12,0h4v24h-4v-24m-24,8h4v16h-4v-16"/><path fill="#eec39a" d="m44,28h4v24h-4v-24"/><path fill="#8f563b" d="m16,36h8v16h-8v-16m12,0h8v16h-8v-16"/><path fill="#000000" d="m0,0h196v68h-196v-68m16,52h36v-24h-4v-12h-28v12h-4v24m52,0h16v-28h-4v8h-12v4h-4v12h4v4m20,-16h8v12h-8v4h20v-4h-8v-16h-12v4m24,16h4v-12h4v-4h8v4h4v-4h-4v-4h-8v4h-4v-4h-4v20m24,0h4v-16h4v12h4v-12h4v16h4v-16h-4v-4h-4v4h-4v-4h-8v20m24,-4h4v4h16v-28h-4v8h-12v4h-4v12m-64,-20h4v-4h-4v4m-28,8h12v12h-12v-12m96,0h12v12h-12v-12"/><path fill="#ffffff" d="m20,16h28v12h-12v8h-16v-20m4,8h12v-4h-12v4m0,8h8v-4h-8v4m16,-8h4v-4h-4v4m40,0h4v28h-16v-4h12v-12h-12v-4h12v-8m16,0h4v4h-4v-4m80,0h4v28h-16v-4h12v-12h-12v-4h12v-8m-88,8h12v16h8v4h-20v-4h8v-12h-8v-4m24,0h4v4h4v4h-4v12h-4v-20m8,0h8v4h-8v-4m16,0h8v4h-4v16h-4v-20m12,0h4v4h-4v-4m-84,4h4v12h-4v-12m64,0h4v4h-4v-4m16,0h4v12h-4v-12m8,0h4v16h-4v-16m8,0h4v12h-4v-12"/></svg>