<svg width="172" height="68" xmlns="http://www.w3.org/2000/svg" shape-rendering="crispEdges"><g transform="scale(4)"><path fill="#000000" d="M0,0h43v17h-43v-17M4,13h9v-9h-9v9M17,13h3v-1h-3v-1h4v-2h-1v-1h-3v1h-1v3h1v1M22,9h3v1h-1v1h-1v1h-1v1h5v-1h-3v-1h1v-1h1v-1h1v-1h-5v1M28,12h1v1h3v-1h-3v-1h4v-2h-1v-1h-3v1h-1v3M34,13h1v-3h1v-1h2v4h1v-4h-1v-1h-2v1h-1v-1h-1v5M5,5h7v7h-7v-7M6,8h1v-1h1v-1h-2v2M17,9h3v1h-3v-1M29,9h3v1h-3v-1"/><path fill="#222034" d="M5,12h2v1h-2v-1"/><path fill="#306082" d="M12,8h1v2h-1v-2"/><path fill="#37946e" d="M12,6h1v2h-1v-2"/><path fill="#3f3f74" d="M7,12h2v1h-2v-1"/><path fill="#45283c" d="M4,11h1v2h-1v-2"/><path fill="#5b6ee1" d="M9,12h2v1h-2v-1"/><path fill="#5fcde4" d="M11,12h2v1h-2v-1"/><path fill="#639bff" d="M12,10h1v2h-1v-2"/><path fill="#6abe30" d="M12,4h1v2h-1v-2"/><path fill="#76428a" d="M4,9h1v2h-1v-2"/><path fill="#99e550" d="M10,4h2v1h-2v-1"/><path fill="#ac3232" d="M4,4h2v1h-2v-1"/><path fill="#d77bba" d="M4,7h1v2h-1v-2"/><path fill="#d95763" d="M4,5h1v2h-1v-2"/><path fill="#df7126" d="M6,4h2v1h-2v-1"/><path fill="#fbf236" d="M8,4h2v1h-2v-1"/><path fill="#ffffff" d="M6,6h2v1h-1v1h-1v-2M17,8h3v1h-3v-1M22,8h5v1h-1v1h-1v-1h-3v-1M29,8h3v1h-3v-1M34,8h1v1h1v1h-1v3h-1v-5M36,8h2v1h-2v-1M16,9h1v1h3v-1h1v2h-4v1h-1v-3M28,9h1v1h3v-1h1v2h-4v1h-1v-3M38,9h1v4h-1v-4M24,10h1v1h-1v-1M23,11h1v1h3v1h-5v-1h1v-1M17,12h3v1h-3v-1M29,12h3v1h-3v-1"/></g></svg>