<svg width="172" height="68" xmlns="http://www.w3.org/2000/svg" shape-rendering="crispEdges"><path fill="#ac3232" d="m16,40h4v8h-4v-8"/><path fill="#000000" d="m0,0h172v68h-172v-68m16,52h4v-16h4v-4h8v4h4v4h8v-4h4v-4h4v-16h-4v16h-4v4h-8v-4h-4v-4h-8v4h-4v4h-4v16m8,-28h4v-4h-4v-4h-4v4h4v4m20,28h4v-4h-4v-4h-4v4h4v4m20,0h4v-4h12v-4h4v-8h-4v-4h-8v4h-4v-4h-4v20m24,-16h8v12h-8v4h20v-4h-8v-16h-12v4m24,16h4v-4h4v-4h4v4h4v4h4v-4h-4v-4h-4v-4h4v-4h4v-4h-4v4h-4v4h-4v-4h-4v-4h-4v4h4v4h4v4h-4v4h-4v4m32,0h4v-4h4v-4h4v-12h-4v12h-4v4h-4v-4h-4v-12h-4v12h4v4h4v4m-48,-24h4v-4h-4v4m-24,8h8v8h-12v-4h4v-4"/><path fill="#ffffff" d="m96,24h4v4h-4v-4m-32,8h4v4h4v4h-4v4h12v4h-12v4h-4v-20m8,0h8v4h-8v-4m16,0h12v16h8v4h-20v-4h8v-12h-8v-4m24,0h4v4h-4v-4m16,0h4v4h-4v-4m8,0h4v12h-4v-12m16,0h4v12h-4v-12m-72,4h4v8h-4v-8m36,0h4v4h-4v-4m8,0h4v4h-4v-4m-4,4h4v4h-4v-4m-4,4h4v4h-4v-4m8,0h4v4h-4v-4m16,0h4v4h-4v-4m8,0h4v4h-4v-4m-36,4h4v4h-4v-4m16,0h4v4h-4v-4m16,0h4v4h-4v-4"/><path fill="#fbf236" d="m24,28h8v4h-8v-4m8,4h4v4h-4v-4"/><path fill="#6abe30" d="m36,36h8v4h-8v-4"/><path fill="#222034" d="m20,16h4v4h-4v-4m28,0h4v4h-4v-4m-24,4h4v4h-4v-4m16,24h4v4h-4v-4m-24,4h4v4h-4v-4m28,0h4v4h-4v-4"/><path fill="#76428a" d="m48,20h4v8h-4v-8"/><path fill="#5b6ee1" d="m48,28h4v4h-4v-4m-4,4h4v4h-4v-4"/><path fill="#df7126" d="m20,32h4v4h-4v-4m-4,4h4v4h-4v-4"/></svg>